# xmcd CD database file
#
# Track frame offsets:
#	182
#	56410
#	99647
#	137540
#	232910
#
# Disc length: 3704 seconds
#
# Revision: 0
# Processed by: cddbd v1.5PL3 Copyright (c) Steve Scherf et al.
# Submitted via: CDex 1.51
#
DISCID=360e7605
DTITLE=Paczynski Levinson Jenny-Clark - 8 years old (original version)
DYEAR=1991
DGENRE=Jazz
TTITLE0=Au-Dela
TTITLE1=The Drive
TTITLE2=Re Person I Know
TTITLE3=Ballade
TTITLE4=Qal
EXTD=YEAR: 1991
EXTT0=
EXTT1=
EXTT2=
EXTT3=
EXTT4=
PLAYORDER=
